<?xml version="1.0" encoding="utf-8"?>
<!-- Generator: Adobe Illustrator 21.0.2, SVG Export Plug-In . SVG Version: 6.00 Build 0)  -->
<svg version="1.1" id="Layer_1" xmlns="http://www.w3.org/2000/svg" xmlns:xlink="http://www.w3.org/1999/xlink" x="0px" y="0px"
	 viewBox="0 0 725 190" style="enable-background:new 0 0 725 190;" xml:space="preserve">
<style type="text/css">
	.st0{fill:#24A69A;}
	.st1{clip-path:url(#SVGID_2_);fill:#24A69A;}
	.st2{clip-path:url(#SVGID_2_);fill:#6C4F70;}
	.st3{fill:none;}
	.st4{fill:#FFFFFF;}
	.st5{clip-path:url(#SVGID_4_);fill:#FFFFFF;}
	.st6{clip-path:url(#SVGID_6_);fill:#6C4F70;}
	.st7{clip-path:url(#SVGID_6_);fill:#00B3A0;}
	.st8{clip-path:url(#SVGID_8_);fill:#FFFFFF;}
</style>
<g id="Artwork_15_1_">
	<g>
		<defs>
			<rect id="SVGID_5_" x="4" y="2.2" width="717" height="185.6"/>
		</defs>
		<clipPath id="SVGID_2_">
			<use xlink:href="#SVGID_5_"  style="overflow:visible;"/>
		</clipPath>
		<path class="st2" d="M45.2,117.5c-0.9,2-2.1,3.7-3.6,5.1c-1.5,1.4-3.1,2.5-5,3.3c-1.9,0.8-3.9,1.2-6,1.2c-3.3,0-6.1-0.7-8.6-2.1
			c-2.5-1.4-4.5-3.2-6.2-5.5c-1.6-2.3-2.9-4.8-3.7-7.7c-0.8-2.9-1.3-5.8-1.3-8.8c0-3,0.4-5.9,1.3-8.8c0.8-2.9,2.1-5.4,3.7-7.7
			c1.6-2.3,3.7-4.1,6.2-5.5c2.5-1.4,5.3-2.1,8.6-2.1c4.6,0,8.1,1.2,10.7,3.6c2.5,2.4,4.3,5.7,5.2,9.9h6.9
			c-0.8-6.5-3.3-11.3-7.5-14.5c-4.2-3.2-9.3-4.8-15.3-4.8c-4.3,0-8.1,0.8-11.4,2.4c-3.3,1.6-6.1,3.7-8.3,6.4c-2.3,2.7-4,5.8-5.1,9.4
			C4.6,95.2,4,99.1,4,103.1c0,4.1,0.6,7.9,1.7,11.5c1.2,3.6,2.9,6.7,5.1,9.4c2.3,2.7,5,4.8,8.3,6.4c3.3,1.6,7.1,2.3,11.4,2.3
			c6.4,0,11.6-1.9,15.7-5.7c4.1-3.8,6.6-9.1,7.5-16H47C46.8,113.4,46.2,115.6,45.2,117.5"/>
		<path class="st2" d="M107,82.2c-2.3-2.7-5-4.8-8.3-6.4c-3.3-1.6-7.1-2.4-11.4-2.4s-8.1,0.8-11.4,2.4c-3.3,1.6-6.1,3.7-8.3,6.4
			c-2.3,2.7-4,5.8-5.1,9.4c-1.2,3.6-1.7,7.4-1.7,11.5s0.6,7.9,1.7,11.5c1.2,3.6,2.9,6.7,5.1,9.4c2.3,2.7,5,4.8,8.3,6.4
			c3.3,1.6,7.1,2.3,11.4,2.3s8.1-0.8,11.4-2.3c3.3-1.6,6.1-3.7,8.3-6.4c2.3-2.7,4-5.8,5.1-9.4c1.2-3.6,1.7-7.4,1.7-11.5
			s-0.6-7.9-1.7-11.5C110.9,88,109.2,84.9,107,82.2 M105.7,111.9c-0.8,2.9-2.1,5.4-3.7,7.7c-1.6,2.3-3.7,4.1-6.2,5.5
			c-2.5,1.4-5.3,2.1-8.6,2.1c-3.3,0-6.1-0.7-8.6-2.1c-2.5-1.4-4.5-3.2-6.2-5.5c-1.6-2.3-2.9-4.8-3.7-7.7c-0.8-2.9-1.3-5.8-1.3-8.8
			c0-3,0.4-5.9,1.3-8.8c0.8-2.9,2.1-5.4,3.7-7.7s3.7-4.1,6.2-5.5c2.5-1.4,5.3-2.1,8.6-2.1c3.3,0,6.1,0.7,8.6,2.1
			c2.5,1.4,4.5,3.2,6.2,5.5c1.6,2.3,2.9,4.8,3.7,7.7c0.8,2.9,1.3,5.8,1.3,8.8C107,106.1,106.6,109.1,105.7,111.9"/>
		<path class="st2" d="M165.3,79.2c-1.6-1.9-3.7-3.3-6.4-4.3c-2.7-1-5.9-1.5-9.9-1.5c-4,0-7.7,1-11,3.1c-3.3,2.1-5.7,4.8-7,8.2h-0.2
			V75H124v56.3h6.9V98.5c0.1-2.8,0.5-5.3,1.4-7.7c0.8-2.4,2-4.4,3.5-6.1c1.5-1.7,3.3-3.1,5.5-4c2.1-1,4.6-1.5,7.4-1.5
			c2.8,0,5.1,0.4,6.9,1.3c1.9,0.9,3.3,2.1,4.4,3.6c1.1,1.5,1.9,3.3,2.3,5.4c0.4,2.1,0.7,4.3,0.7,6.7v35.1h6.9V95.1
			c0-3.3-0.3-6.4-1-9.1C168.1,83.3,166.9,81.1,165.3,79.2"/>
		<path class="st2" d="M220.2,105c-1.5-1.2-3.2-2.2-5.1-3c-1.9-0.8-3.9-1.3-5.8-1.6l-9.2-2.1c-1.2-0.3-2.4-0.7-3.8-1.1
			c-1.4-0.5-2.7-1.1-3.8-1.8c-1.2-0.7-2.1-1.6-2.9-2.7c-0.8-1.1-1.1-2.3-1.1-3.9c0-1.8,0.4-3.3,1.2-4.6c0.8-1.2,1.9-2.2,3.2-3
			c1.3-0.8,2.7-1.3,4.3-1.6c1.6-0.3,3.1-0.5,4.6-0.5c2,0,3.8,0.2,5.6,0.7c1.7,0.5,3.3,1.2,4.6,2.2c1.3,1,2.4,2.3,3.2,3.9
			c0.8,1.6,1.2,3.4,1.3,5.5h6.9c-0.1-3.1-0.8-5.7-1.9-8c-1.1-2.3-2.6-4.1-4.4-5.7c-1.9-1.5-4-2.7-6.4-3.4c-2.4-0.7-5.1-1.1-7.9-1.1
			c-2.5,0-5,0.3-7.5,0.9c-2.5,0.6-4.8,1.5-6.8,2.7c-2,1.2-3.7,2.9-5,4.9c-1.3,2-1.9,4.5-1.9,7.3c0,2.4,0.4,4.4,1.2,6.1
			c0.8,1.6,1.9,3,3.3,4.1c1.4,1.1,3.1,2.1,5,2.8c1.9,0.8,4,1.4,6.2,2l8.8,2c1.5,0.4,3,0.8,4.5,1.3c1.5,0.5,2.8,1.1,4,1.9
			c1.2,0.8,2.1,1.7,2.8,2.8c0.7,1.1,1,2.5,1,4.2c0,2-0.5,3.6-1.5,5c-1,1.3-2.2,2.5-3.8,3.3c-1.5,0.9-3.2,1.5-5,1.9
			c-1.8,0.4-3.5,0.5-5.2,0.5c-4.6,0-8.4-1.2-11.5-3.5c-3.1-2.4-4.8-5.9-5.1-10.5h-6.9c0.6,6.9,2.9,11.9,7,15.1
			c4.1,3.1,9.5,4.7,16.1,4.7c2.6,0,5.3-0.3,8-0.9c2.7-0.6,5.1-1.5,7.3-2.9c2.1-1.3,3.9-3.1,5.3-5.2c1.4-2.1,2.1-4.7,2.1-7.8
			c0-2.5-0.5-4.6-1.4-6.4C222.9,107.8,221.6,106.2,220.2,105"/>
		<path class="st2" d="M281.4,93.4c-0.9-3.8-2.3-7.2-4.3-10.1c-2-2.9-4.6-5.3-7.8-7.1c-3.2-1.8-7.1-2.7-11.6-2.7
			c-4.4,0-8.3,0.9-11.5,2.6c-3.2,1.7-5.9,4-7.9,6.8c-2,2.8-3.5,6-4.5,9.5c-1,3.6-1.5,7.2-1.5,10.9c0,4,0.5,7.8,1.5,11.4
			s2.5,6.8,4.5,9.5c2,2.7,4.7,4.9,7.9,6.4c3.2,1.6,7.1,2.3,11.5,2.3c7.1,0,12.6-1.7,16.5-5.2c3.9-3.5,6.6-8.4,8-14.8h-6.9
			c-1.1,4.4-3.1,7.9-5.9,10.5c-2.8,2.6-6.8,3.9-11.8,3.9c-3.3,0-6.1-0.7-8.4-2.1c-2.3-1.4-4.3-3.1-5.8-5.2c-1.5-2.1-2.6-4.5-3.3-7.1
			c-0.7-2.7-1-5.2-1-7.7h43.3C282.6,101.1,282.3,97.2,281.4,93.4 M239.2,99.2c0.3-2.5,0.9-5,1.8-7.5c0.9-2.4,2.1-4.6,3.7-6.4
			c1.5-1.9,3.4-3.3,5.6-4.5c2.2-1.1,4.7-1.7,7.5-1.7c2.8,0,5.2,0.6,7.4,1.7c2.2,1.1,4,2.6,5.6,4.5c1.5,1.9,2.7,4,3.5,6.4
			c0.8,2.4,1.3,4.9,1.4,7.5H239.2z"/>
		<path class="st2" d="M333,79.2c-1.6-1.9-3.7-3.3-6.4-4.3c-2.7-1-5.9-1.5-9.9-1.5c-4,0-7.7,1-11,3.1c-3.3,2.1-5.7,4.8-7,8.2h-0.2
			V75h-6.9v56.3h6.9V98.5c0.1-2.8,0.5-5.3,1.4-7.7c0.8-2.4,2-4.4,3.5-6.1c1.5-1.7,3.3-3.1,5.5-4c2.1-1,4.6-1.5,7.4-1.5
			s5.1,0.4,6.9,1.3c1.9,0.9,3.3,2.1,4.4,3.6c1.1,1.5,1.9,3.3,2.3,5.4c0.4,2.1,0.7,4.3,0.7,6.7v35.1h6.9V95.1c0-3.3-0.3-6.4-1-9.1
			C335.7,83.3,334.6,81.1,333,79.2"/>
		<path class="st2" d="M361.3,58.1h-6.9V75h-9.8v5.8h9.8v38.5c-0.1,4.8,0.8,8.1,2.6,9.9c1.8,1.8,5,2.7,9.6,2.7c1,0,2,0,3.1-0.1
			c1-0.1,2-0.1,3.1-0.1v-5.8c-2,0.2-3.9,0.3-5.9,0.3c-2.5-0.1-4-0.9-4.6-2.1c-0.6-1.3-0.9-3-0.9-5.3v-38h11.5V75h-11.5V58.1z"/>
		<path class="st2" d="M511.1,105c-1.5-1.2-3.2-2.2-5.1-3c-1.9-0.8-3.9-1.3-5.8-1.6l-9.2-2.1c-1.2-0.3-2.4-0.7-3.8-1.1
			c-1.4-0.5-2.7-1.1-3.8-1.8c-1.2-0.7-2.1-1.6-2.9-2.7c-0.8-1.1-1.1-2.3-1.1-3.9c0-1.8,0.4-3.3,1.2-4.6c0.8-1.2,1.9-2.2,3.2-3
			c1.3-0.8,2.7-1.3,4.3-1.6c1.6-0.3,3.1-0.5,4.6-0.5c2,0,3.8,0.2,5.6,0.7c1.7,0.5,3.3,1.2,4.6,2.2c1.3,1,2.4,2.3,3.2,3.9
			c0.8,1.6,1.2,3.4,1.3,5.5h6.9c-0.1-3.1-0.8-5.7-1.9-8c-1.1-2.3-2.6-4.1-4.4-5.7c-1.9-1.5-4-2.7-6.4-3.4c-2.4-0.7-5.1-1.1-7.9-1.1
			c-2.5,0-5,0.3-7.5,0.9c-2.5,0.6-4.8,1.5-6.8,2.7c-2,1.2-3.7,2.9-5,4.9c-1.3,2-1.9,4.5-1.9,7.3c0,2.4,0.4,4.4,1.2,6.1
			c0.8,1.6,1.9,3,3.3,4.1c1.4,1.1,3.1,2.1,5,2.8c1.9,0.8,4,1.4,6.2,2l8.8,2c1.5,0.4,3,0.8,4.5,1.3c1.5,0.5,2.8,1.1,4,1.9
			c1.2,0.8,2.1,1.7,2.8,2.8c0.7,1.1,1,2.5,1,4.2c0,2-0.5,3.6-1.5,5c-1,1.3-2.2,2.5-3.8,3.3c-1.5,0.9-3.2,1.5-5,1.9
			c-1.8,0.4-3.5,0.5-5.2,0.5c-4.6,0-8.4-1.2-11.5-3.5c-3.1-2.4-4.8-5.9-5.1-10.5h-6.9c0.6,6.9,2.9,11.9,7,15.1
			c4.1,3.1,9.5,4.7,16.1,4.7c2.6,0,5.3-0.3,8-0.9c2.7-0.6,5.1-1.5,7.3-2.9c2.1-1.3,3.9-3.1,5.3-5.2c1.4-2.1,2.1-4.7,2.1-7.8
			c0-2.5-0.5-4.6-1.4-6.4C513.8,107.8,512.6,106.2,511.1,105"/>
		<path class="st2" d="M567.3,79.2c-1.6-1.9-3.7-3.3-6.4-4.3c-2.7-1-5.9-1.5-9.9-1.5c-4,0-7.7,1-11,3.1c-3.3,2.1-5.7,4.8-7,8.2h-0.2
			V53.4H526v77.9h6.9V98.5c0.1-2.8,0.5-5.3,1.4-7.7c0.8-2.4,2-4.4,3.5-6.1c1.5-1.7,3.3-3.1,5.5-4c2.1-1,4.6-1.5,7.4-1.5
			c2.8,0,5.1,0.4,6.9,1.3c1.9,0.9,3.3,2.1,4.4,3.6c1.1,1.5,1.9,3.3,2.3,5.4c0.4,2.1,0.7,4.3,0.7,6.7v35.1h6.9V95.1
			c0-3.3-0.3-6.4-1-9.1C570,83.3,568.9,81.1,567.3,79.2"/>
		<path class="st2" d="M627.5,121.4V91.5c0-3.8-0.6-6.9-1.9-9.2c-1.2-2.4-2.8-4.2-4.8-5.5s-4.2-2.2-6.7-2.7
			c-2.5-0.5-4.9-0.7-7.4-0.7c-3.3,0-6.3,0.4-8.9,1.1c-2.7,0.7-5,1.9-7,3.4c-2,1.5-3.6,3.5-4.7,5.9c-1.2,2.4-1.9,5.2-2.1,8.5h6.9
			c0.1-4.6,1.6-7.9,4.4-10c2.8-2.1,6.3-3.1,10.7-3.1c2,0,3.9,0.2,5.7,0.5c1.8,0.3,3.3,0.9,4.7,1.8c1.3,0.9,2.4,2.1,3.2,3.5
			c0.8,1.5,1.1,3.4,1.1,5.7c0,1.5-0.2,2.8-0.6,3.7c-0.4,0.9-1,1.7-1.7,2.2c-0.7,0.5-1.6,0.9-2.7,1.1c-1.1,0.2-2.4,0.4-3.8,0.5
			c-3.7,0.4-7.4,0.9-11,1.4c-3.6,0.5-6.8,1.3-9.7,2.5c-2.9,1.2-5.2,2.9-6.9,5.1c-1.7,2.2-2.6,5.3-2.6,9.2c0,2.8,0.5,5.3,1.5,7.4
			c1,2.1,2.3,3.8,4,5.1c1.7,1.3,3.7,2.3,6,2.9c2.3,0.6,4.7,0.9,7.4,0.9c2.8,0,5.1-0.3,7.1-0.8c2-0.5,3.8-1.2,5.3-2.2
			c1.6-0.9,3-2.1,4.3-3.5c1.3-1.4,2.5-3,3.8-4.9h0.2c0,1.5,0.1,2.8,0.3,4c0.2,1.2,0.6,2.2,1.1,3.1c0.6,0.9,1.4,1.5,2.5,2
			c1.1,0.5,2.5,0.7,4.2,0.7c0.9,0,1.7,0,2.3-0.1c0.6-0.1,1.3-0.2,2.1-0.3v-5.8c-0.7,0.3-1.4,0.4-2.2,0.4
			C628.9,125.5,627.5,124.1,627.5,121.4 M620.7,109.5c0,2.8-0.5,5.2-1.6,7.4c-1.1,2.2-2.5,4-4.3,5.6c-1.8,1.5-3.9,2.7-6.3,3.5
			c-2.4,0.8-4.9,1.2-7.5,1.2c-1.6,0-3.2-0.3-4.7-0.8c-1.5-0.5-2.9-1.3-4-2.2c-1.2-1-2.1-2.1-2.8-3.5c-0.7-1.3-1-2.9-1-4.6
			c0-2.8,0.8-4.9,2.5-6.4c1.6-1.5,3.7-2.6,6.3-3.4c2.5-0.8,5.4-1.4,8.5-1.8c3.1-0.4,6.1-0.9,9-1.4c0.9-0.1,2-0.4,3.3-0.8
			c1.2-0.4,2.1-0.9,2.5-1.7h0.2V109.5z"/>
		<path class="st2" d="M647.8,88.2h-0.2V75h-6.3v56.3h6.9v-30c0-3,0.5-5.7,1.5-8.2c1-2.5,2.5-4.7,4.3-6.5c1.9-1.8,4.1-3.2,6.6-4.2
			c2.5-1,5.4-1.4,8.5-1.3v-6.9c-5.1-0.2-9.5,0.9-13.1,3.4C652.3,80.1,649.6,83.6,647.8,88.2"/>
		<path class="st2" d="M708,123.2c-2.8,2.6-6.8,3.9-11.8,3.9c-3.3,0-6.1-0.7-8.4-2.1c-2.3-1.4-4.3-3.1-5.8-5.2
			c-1.5-2.1-2.6-4.5-3.3-7.1c-0.7-2.7-1-5.2-1-7.7H721c0.1-3.9-0.2-7.8-1.1-11.6c-0.9-3.8-2.3-7.2-4.3-10.1c-2-2.9-4.6-5.3-7.8-7.1
			c-3.2-1.8-7.1-2.7-11.6-2.7c-4.4,0-8.3,0.9-11.5,2.6c-3.2,1.7-5.9,4-7.9,6.8c-2,2.8-3.5,6-4.5,9.5c-1,3.6-1.5,7.2-1.5,10.9
			c0,4,0.5,7.8,1.5,11.4c1,3.6,2.5,6.8,4.5,9.5c2,2.7,4.7,4.9,7.9,6.4c3.2,1.6,7.1,2.3,11.5,2.3c7.1,0,12.6-1.7,16.5-5.2
			c3.9-3.5,6.6-8.4,8-14.8h-6.9C712.8,117.1,710.9,120.6,708,123.2 M679.5,91.7c0.9-2.4,2.1-4.6,3.7-6.4c1.5-1.9,3.4-3.3,5.6-4.5
			c2.2-1.1,4.7-1.7,7.5-1.7c2.8,0,5.2,0.6,7.4,1.7c2.2,1.1,4,2.6,5.6,4.5c1.5,1.9,2.7,4,3.5,6.4c0.8,2.4,1.3,4.9,1.4,7.5h-36.4
			C678,96.7,678.6,94.2,679.5,91.7"/>
		<polygon style="clip-path:url(#SVGID_2_);fill:#00B3A0;" points="432.7,127 420.7,127 418.6,130.3 430.7,130.3 		"/>
		<polygon style="clip-path:url(#SVGID_2_);fill:#00B3A0;" points="430,131.3 418,131.3 416.2,134.2 428.3,134.2 		"/>
		<polygon style="clip-path:url(#SVGID_2_);fill:#00B3A0;" points="427.4,135.7 415.3,135.7 413.8,138.1 425.9,138.1 		"/>
		<polygon style="clip-path:url(#SVGID_2_);fill:#00B3A0;" points="424.7,140.1 412.6,140.1 411.4,141.9 423.5,141.9 		"/>
		<polygon style="clip-path:url(#SVGID_2_);fill:#00B3A0;" points="422,144.5 409.9,144.5 409,145.8 421.1,145.8 		"/>
		<polygon style="clip-path:url(#SVGID_2_);fill:#00B3A0;" points="406.6,149.7 418.7,149.7 419.3,148.8 407.2,148.8 		"/>
		<path style="clip-path:url(#SVGID_2_);fill:#00B3A0;" d="M455.8,16.3c-9.6-9.1-22.5-14.1-36.3-14.1c-20,0-38.4,11.7-46.8,29.8
			l10.1,4.7c6.6-14.2,21.1-23.4,36.7-23.4c23.1,0,40.5,16.9,40.5,39.4c0,4.6-0.7,10.9-4.9,18.9L421,126.4h12.1c0,0,30.5-48,33.5-54
			s4.7-16,4.7-19.7C471.2,38.6,465.8,25.7,455.8,16.3"/>
		<polygon style="clip-path:url(#SVGID_2_);fill:#00B3A0;" points="415.2,87 427.3,87 429.3,83.7 417.3,83.7 		"/>
		<polygon style="clip-path:url(#SVGID_2_);fill:#00B3A0;" points="417.9,82.7 430,82.7 431.7,79.8 419.6,79.8 		"/>
		<polygon style="clip-path:url(#SVGID_2_);fill:#00B3A0;" points="420.6,78.3 432.7,78.3 434.1,75.9 422,75.9 		"/>
		<polygon style="clip-path:url(#SVGID_2_);fill:#00B3A0;" points="423.3,73.9 435.4,73.9 436.5,72.1 424.4,72.1 		"/>
		<polygon style="clip-path:url(#SVGID_2_);fill:#00B3A0;" points="426,69.6 438.1,69.6 438.9,68.2 426.8,68.2 		"/>
		<polygon style="clip-path:url(#SVGID_2_);fill:#00B3A0;" points="441.3,64.3 429.2,64.3 428.7,65.2 440.8,65.2 		"/>
		<path style="clip-path:url(#SVGID_2_);fill:#00B3A0;" d="M416.5,104.5L416.5,104.5l3.3-5.3l2.4-3.9l2.4-3.9l0,0h0l2.4-3.8h-12.1
			l-1.2,1.9h0l-54.2,87.7c-2.9,4.6,0.5,10.6,5.9,10.6h87.5l7.9-12.5h-88L416.5,104.5z"/>
	</g>
	<rect x="4" y="2.2" class="st3" width="717" height="185.6"/>
</g>
</svg>
