<?xml version="1.0" encoding="utf-8"?>
<!-- Generator: Adobe Illustrator 21.0.2, SVG Export Plug-In . SVG Version: 6.00 Build 0)  -->
<svg version="1.1" id="Layer_1" xmlns="http://www.w3.org/2000/svg" xmlns:xlink="http://www.w3.org/1999/xlink" x="0px" y="0px"
	 viewBox="0 0 222 190" style="enable-background:new 0 0 222 190;" xml:space="preserve">
<style type="text/css">
	.st0{fill:#24A69A;}
	.st1{clip-path:url(#SVGID_2_);fill:#24A69A;}
	.st2{clip-path:url(#SVGID_2_);fill:#6C4F70;}
	.st3{fill:none;}
	.st4{fill:#FFFFFF;}
	.st5{clip-path:url(#SVGID_4_);fill:#FFFFFF;}
	.st6{clip-path:url(#SVGID_6_);fill:#6C4F70;}
	.st7{clip-path:url(#SVGID_6_);fill:#00B3A0;}
	.st8{clip-path:url(#SVGID_8_);fill:#FFFFFF;}
</style>
<g id="Artwork_16">
	<polygon class="st0" points="128.9,127.3 116.8,127.3 114.8,130.7 126.9,130.7 	"/>
	<polygon class="st0" points="126.2,131.7 114.1,131.7 112.4,134.5 124.5,134.5 	"/>
	<polygon class="st0" points="123.5,136.1 111.4,136.1 110,138.4 122.1,138.4 	"/>
	<polygon class="st0" points="120.8,140.4 108.8,140.4 107.6,142.3 119.7,142.3 	"/>
	<polygon class="st0" points="118.1,144.8 106.1,144.8 105.2,146.2 117.3,146.2 	"/>
	<polygon class="st0" points="102.8,150.1 114.9,150.1 115.4,149.2 103.4,149.2 	"/>
	<g>
		<defs>
			<rect id="SVGID_1_" x="1.5" y="2.6" width="219" height="185.6"/>
		</defs>
		<clipPath id="SVGID_2_">
			<use xlink:href="#SVGID_1_"  style="overflow:visible;"/>
		</clipPath>
		<path class="st1" d="M152,16.7c-9.6-9.1-22.5-14.1-36.3-14.1c-20,0-38.4,11.7-46.8,29.8L79,37.1c6.6-14.2,21.1-23.4,36.7-23.4
			c23.1,0,40.5,16.9,40.5,39.4c0,4.6-0.7,10.9-4.9,18.9l-34.2,54.8h12.1c0,0,30.5-48,33.5-54c3-6,4.7-16,4.7-19.7
			C167.4,39,161.9,26,152,16.7"/>
		<polygon class="st1" points="111.4,87.4 123.5,87.4 125.5,84.1 113.4,84.1 		"/>
		<polygon class="st1" points="114.1,83 126.2,83 127.9,80.2 115.8,80.2 		"/>
		<polygon class="st1" points="116.8,78.7 128.8,78.7 130.3,76.3 118.2,76.3 		"/>
		<polygon class="st1" points="119.5,74.3 131.5,74.3 132.7,72.4 120.6,72.4 		"/>
		<polygon class="st1" points="122.2,69.9 134.2,69.9 135.1,68.6 123,68.6 		"/>
		<polygon class="st1" points="137.5,64.7 125.4,64.7 124.8,65.6 136.9,65.6 		"/>
		<path class="st1" d="M112.7,104.9L112.7,104.9l3.3-5.3l2.4-3.9l2.4-3.9l0,0h0l2.4-3.8H111l-1.2,1.9h0l-54.2,87.7
			c-2.9,4.6,0.5,10.6,5.9,10.6h87.5l7.9-12.5H69L112.7,104.9z"/>
		<path class="st2" d="M54.1,136.8c-12.3,0-22.4-3.9-30.4-11.8c-8-7.8-12.1-17.6-12.1-29.4c0-7.8,1.8-14.7,5.4-21
			c3.6-6.2,8.7-11.2,15.2-14.8c6.5-3.7,13.6-5.5,21.3-5.5c7,0,13.5,1.4,19.3,4.2c5.9,2.8,10.9,6.9,15.1,12.4l7.6-5.8
			C90.9,58.7,85,53.7,77.8,50.2c-7.2-3.6-15.3-5.3-24.3-5.3c-14.9,0-27.2,4.8-37.1,14.4C6.4,68.9,1.5,80.7,1.5,94.8
			c0,13.4,4.1,24.8,12.2,34.3c9.7,11.2,23,16.8,39.8,16.8c6.4,0,12.3-0.9,17.9-2.6l9.9-15.8C73.6,133.7,64.5,136.8,54.1,136.8"/>
		<path class="st2" d="M218.5,108c-1.3-2.8-3.1-5.2-5.4-7.1c-2.3-1.9-5-3.6-8-4.9c-3-1.3-6.2-2.4-9.7-3.3l-23.5-5.8
			c-2-0.5-3.9-1-5.6-1.8c-1.6-0.6-2.9-1.5-4.2-2.4l-4.9,7.8c1.4,0.9,2.8,1.7,4.5,2.4c2.7,1.1,5.4,2,8.2,2.7l21.5,5.3
			c2.3,0.5,4.6,1.2,6.9,2.1c2.3,0.9,4.5,2,6.4,3.3c1.9,1.4,3.5,3,4.7,5c1.2,2,1.8,4.3,1.8,7c0,3.5-0.9,6.5-2.6,9
			c-1.7,2.5-3.9,4.5-6.4,6.1c-2.6,1.6-5.3,2.7-8.3,3.5c-3,0.7-5.7,1.1-8.3,1.1c-4.4,0-8.6-0.4-12.5-1.3c-3.9-0.9-7.2-2.3-10.1-4.3
			c-2.8-2-5.1-4.6-6.7-8c-1.6-3.3-2.4-7.5-2.3-12.5H145c-0.3,6,0.5,11.1,2.4,15.3c1.8,4.2,4.5,7.7,7.9,10.4c3.4,2.7,7.6,4.7,12.5,6
			c4.9,1.3,10.1,2,15.8,2c5.7,0,10.6-0.5,14.6-1.6c4.1-1,7.5-2.4,10.2-4.1c2.8-1.7,4.9-3.5,6.5-5.6c1.6-2.1,2.8-4.1,3.7-6.2
			c0.9-2,1.4-3.9,1.6-5.8c0.2-1.8,0.3-3.2,0.3-4.3C220.5,114.2,219.8,110.8,218.5,108"/>
		<path class="st2" d="M171.2,54.2c0.4-0.1,0.8-0.2,1.2-0.3c2.9-0.7,6-1,9.1-1c3.4,0,6.7,0.5,9.8,1.4c3.1,0.9,5.9,2.3,8.3,4.2
			c2.4,1.8,4.3,4.2,5.8,6.9c1.5,2.8,2.3,6,2.5,9.7h9.2c0-5-1-9.3-2.9-13.1c-1.9-3.7-4.5-6.9-7.8-9.4c-3.2-2.5-7-4.4-11.4-5.7
			c-4.3-1.3-8.9-1.9-13.7-1.9c-3.8,0-7.3,0.3-10.3,0.9C171.3,48.8,171.4,51.6,171.2,54.2"/>
	</g>
	<rect x="1.5" y="2.6" class="st3" width="219" height="185.6"/>
</g>
</svg>
