<?xml version="1.0" encoding="utf-8"?>
<!-- Generator: Adobe Illustrator 21.0.2, SVG Export Plug-In . SVG Version: 6.00 Build 0)  -->
<svg version="1.1" id="Layer_1" xmlns="http://www.w3.org/2000/svg" xmlns:xlink="http://www.w3.org/1999/xlink" x="0px" y="0px"
	 viewBox="0 0 216 216" style="enable-background:new 0 0 216 216;" xml:space="preserve">
<style type="text/css">
	.st0{fill:none;}
	.st1{fill:#FDE3E2;}
	.st2{fill:#6C4F70;}
	.st3{fill:#F4CBDB;}
	.st4{clip-path:url(#SVGID_2_);fill:url(#SVGID_3_);}
	.st5{clip-path:url(#SVGID_2_);fill:#CCE4E1;}
	.st6{clip-path:url(#SVGID_2_);fill:#F0F9F8;}
	.st7{clip-path:url(#SVGID_2_);fill:none;stroke:#2A5183;stroke-width:4.021;stroke-miterlimit:10;}
	.st8{clip-path:url(#SVGID_2_);fill:url(#SVGID_4_);}
	.st9{clip-path:url(#SVGID_2_);fill:none;stroke:url(#SVGID_5_);stroke-width:4.021;stroke-miterlimit:10;}
	.st10{clip-path:url(#SVGID_2_);fill:#FFFFFF;}
	.st11{clip-path:url(#SVGID_2_);fill:none;stroke:url(#SVGID_6_);stroke-width:4.021;stroke-miterlimit:10;}
	.st12{clip-path:url(#SVGID_2_);fill:url(#SVGID_7_);}
	.st13{clip-path:url(#SVGID_2_);fill:url(#SVGID_8_);}
	.st14{clip-path:url(#SVGID_2_);fill:url(#SVGID_9_);}
	.st15{clip-path:url(#SVGID_2_);fill:none;stroke:url(#SVGID_10_);stroke-width:4.021;stroke-miterlimit:10;}
	.st16{clip-path:url(#SVGID_2_);fill:none;stroke:url(#SVGID_11_);stroke-width:4.021;stroke-miterlimit:10;}
	.st17{clip-path:url(#SVGID_2_);fill:none;stroke:url(#SVGID_12_);stroke-width:4.021;stroke-miterlimit:10;}
	.st18{clip-path:url(#SVGID_2_);fill:none;stroke:url(#SVGID_13_);stroke-width:4.021;stroke-miterlimit:10;}
	.st19{clip-path:url(#SVGID_2_);fill:none;stroke:url(#SVGID_14_);stroke-width:4.021;stroke-miterlimit:10;}
	.st20{clip-path:url(#SVGID_2_);fill:none;stroke:url(#SVGID_15_);stroke-width:4.021;stroke-miterlimit:10;}
	.st21{clip-path:url(#SVGID_2_);fill:none;stroke:url(#SVGID_16_);stroke-width:4.021;stroke-miterlimit:10;}
	.st22{clip-path:url(#SVGID_2_);fill:none;stroke:url(#SVGID_17_);stroke-width:4.021;stroke-miterlimit:10;}
	.st23{clip-path:url(#SVGID_2_);fill:none;stroke:url(#SVGID_18_);stroke-width:4.021;stroke-miterlimit:10;}
	.st24{clip-path:url(#SVGID_2_);fill:none;stroke:url(#SVGID_19_);stroke-width:4.021;stroke-miterlimit:10;}
	.st25{clip-path:url(#SVGID_2_);fill:none;stroke:url(#SVGID_20_);stroke-width:4.021;stroke-miterlimit:10;}
	.st26{clip-path:url(#SVGID_2_);fill:none;stroke:url(#SVGID_21_);stroke-width:4.021;stroke-miterlimit:10;}
</style>
<pattern  x="-2.4" width="57" height="57" patternUnits="userSpaceOnUse" id="Unnamed_Pattern" viewBox="0 -57 57 57" style="overflow:visible;">
	<g>
		<rect y="-57" class="st0" width="57" height="57"/>
		<rect y="-57" class="st1" width="57" height="57"/>
	</g>
</pattern>
<pattern  x="-2.4" width="57" height="57" patternUnits="userSpaceOnUse" id="Unnamed_Pattern_19" viewBox="0 -57 57 57" style="overflow:visible;">
	<g>
		<rect y="-57" class="st0" width="57" height="57"/>
		<rect y="-57" class="st2" width="57" height="57"/>
	</g>
</pattern>
<pattern  x="-2.4" width="57" height="57" patternUnits="userSpaceOnUse" id="Unnamed_Pattern_7" viewBox="0 -57 57 57" style="overflow:visible;">
	<g>
		<rect y="-57" class="st0" width="57" height="57"/>
		<rect y="-57" class="st3" width="57" height="57"/>
	</g>
</pattern>
<g id="Artwork_4">
	<g>
		<defs>
			<rect id="SVGID_1_" x="3.7" y="6.4" width="208.7" height="203.3"/>
		</defs>
		<clipPath id="SVGID_2_">
			<use xlink:href="#SVGID_1_"  style="overflow:visible;"/>
		</clipPath>
		<pattern  id="SVGID_3_" xlink:href="#Unnamed_Pattern" patternTransform="matrix(0.8731 0 0 -0.8731 -2653.1479 596.1763)">
		</pattern>
		<path class="st4" d="M212.3,101.4c0,52.5-42.5,95-95,95c-52.5,0-95-42.5-95-95c0-52.5,42.5-95,95-95
			C169.8,6.4,212.3,48.9,212.3,101.4"/>
		<rect x="16.6" y="45.5" class="st5" width="29.2" height="162.1"/>
		<rect x="45.8" y="45.5" class="st6" width="103.7" height="162.1"/>
		<rect x="16.6" y="45.5" class="st7" width="132.9" height="162.1"/>
		<pattern  id="SVGID_4_" xlink:href="#Unnamed_Pattern_7" patternTransform="matrix(0.8043 0 0 -0.8043 -3171.4014 117.0157)">
		</pattern>
		<path class="st8" d="M123.6,152.5v-13.7c0-8.7-21-15.5-27.6-15.5c-6.6,0-27.6,6.8-27.6,15.5v13.7H123.6z"/>
		<pattern  id="SVGID_5_" xlink:href="#Unnamed_Pattern_19" patternTransform="matrix(0.8043 0 0 -0.8043 -3171.4014 117.0157)">
		</pattern>
		<path class="st9" d="M123.6,152.5v-13.7c0-8.7-21-15.5-27.6-15.5c-6.6,0-27.6,6.8-27.6,15.5v13.7H123.6z"/>
		<path class="st10" d="M96.1,125.8c8.4,0,14.6-6.8,14.6-15.3v-5.1c0-8.4-6.2-15.3-14.6-15.3c-8.4,0-14.6,6.8-14.6,15.3v5.1
			C81.5,119,87.7,125.8,96.1,125.8"/>
		<pattern  id="SVGID_6_" xlink:href="#Unnamed_Pattern_19" patternTransform="matrix(0.8043 0 0 -0.8043 -3171.4014 117.0157)">
		</pattern>
		<path class="st11" d="M96.1,125.8c8.4,0,14.6-6.8,14.6-15.3v-5.1c0-8.4-6.2-15.3-14.6-15.3c-8.4,0-14.6,6.8-14.6,15.3v5.1
			C81.5,119,87.7,125.8,96.1,125.8z"/>
		<pattern  id="SVGID_7_" xlink:href="#Unnamed_Pattern_7" patternTransform="matrix(0.9212 0 0 -0.9212 -2231.6042 1044.0016)">
		</pattern>
		<rect x="149.6" y="136.3" class="st12" width="19.5" height="25.9"/>
		<pattern  id="SVGID_8_" xlink:href="#Unnamed_Pattern_7" patternTransform="matrix(0.9212 0 0 -0.9212 -2231.6042 1044.0016)">
		</pattern>
		<rect x="149.6" y="97.4" class="st13" width="19.5" height="25.9"/>
		<pattern  id="SVGID_9_" xlink:href="#Unnamed_Pattern_7" patternTransform="matrix(0.9212 0 0 -0.9212 -2231.6042 1044.0016)">
		</pattern>
		<rect x="149.6" y="58.5" class="st14" width="19.5" height="25.9"/>
		<pattern  id="SVGID_10_" xlink:href="#Unnamed_Pattern_19" patternTransform="matrix(0.8043 0 0 -0.8043 -3171.4014 117.0157)">
		</pattern>
		<line class="st15" x1="3.7" y1="68.2" x2="26.4" y2="68.2"/>
		<pattern  id="SVGID_11_" xlink:href="#Unnamed_Pattern_19" patternTransform="matrix(0.8043 0 0 -0.8043 -3171.4014 117.0157)">
		</pattern>
		<line class="st16" x1="3.7" y1="87.7" x2="26.4" y2="87.7"/>
		<pattern  id="SVGID_12_" xlink:href="#Unnamed_Pattern_19" patternTransform="matrix(0.8043 0 0 -0.8043 -3171.4014 117.0157)">
		</pattern>
		<line class="st17" x1="3.7" y1="107.1" x2="26.4" y2="107.1"/>
		<pattern  id="SVGID_13_" xlink:href="#Unnamed_Pattern_19" patternTransform="matrix(0.8043 0 0 -0.8043 -3171.4014 117.0157)">
		</pattern>
		<line class="st18" x1="3.7" y1="126.6" x2="26.4" y2="126.6"/>
		<pattern  id="SVGID_14_" xlink:href="#Unnamed_Pattern_19" patternTransform="matrix(0.8043 0 0 -0.8043 -3171.4014 117.0157)">
		</pattern>
		<line class="st19" x1="3.7" y1="146" x2="26.4" y2="146"/>
		<pattern  id="SVGID_15_" xlink:href="#Unnamed_Pattern_19" patternTransform="matrix(0.8043 0 0 -0.8043 -3171.4014 117.0157)">
		</pattern>
		<line class="st20" x1="3.7" y1="165.5" x2="26.4" y2="165.5"/>
		<pattern  id="SVGID_16_" xlink:href="#Unnamed_Pattern_19" patternTransform="matrix(0.8043 0 0 -0.8043 -3171.4014 117.0157)">
		</pattern>
		<line class="st21" x1="3.7" y1="184.9" x2="26.4" y2="184.9"/>
		<pattern  id="SVGID_17_" xlink:href="#Unnamed_Pattern_19" patternTransform="matrix(0.8043 0 0 -0.8043 -3171.4014 117.0157)">
		</pattern>
		<rect x="149.6" y="136.3" class="st22" width="19.5" height="25.9"/>
		<pattern  id="SVGID_18_" xlink:href="#Unnamed_Pattern_19" patternTransform="matrix(0.8043 0 0 -0.8043 -3171.4014 117.0157)">
		</pattern>
		<rect x="149.6" y="97.4" class="st23" width="19.5" height="25.9"/>
		<pattern  id="SVGID_19_" xlink:href="#Unnamed_Pattern_19" patternTransform="matrix(0.8043 0 0 -0.8043 -3171.4014 117.0157)">
		</pattern>
		<rect x="149.6" y="58.5" class="st24" width="19.5" height="25.9"/>
		<pattern  id="SVGID_20_" xlink:href="#Unnamed_Pattern_19" patternTransform="matrix(0.8043 0 0 -0.8043 -3171.4014 117.0157)">
		</pattern>
		<rect x="16.6" y="45.5" class="st25" width="132.9" height="162.1"/>
		<pattern  id="SVGID_21_" xlink:href="#Unnamed_Pattern_19" patternTransform="matrix(0.8043 0 0 -0.8043 -3171.4014 117.0157)">
		</pattern>
		<line class="st26" x1="45.8" y1="45.5" x2="45.8" y2="207.6"/>
	</g>
	<rect x="3.7" y="6.4" class="st0" width="208.7" height="203.3"/>
</g>
</svg>
